<svg width="6" height="11" viewBox="0 0 6 11" fill="none" xmlns="http://www.w3.org/2000/svg">
<path d="M4.90044 5.5L0.232532 0.702917C0.194101 0.664258 0.163717 0.618362 0.143141 0.567883C0.122564 0.517405 0.112202 0.463347 0.112655 0.408837C0.113107 0.354328 0.124366 0.30045 0.145778 0.25032C0.167191 0.200191 0.198333 0.154805 0.237402 0.116791C0.276471 0.078776 0.32269 0.0488867 0.373386 0.0288525C0.424082 0.00881836 0.478249 -0.00096294 0.53275 7.47027e-05C0.587252 0.00111235 0.641006 0.0129483 0.690903 0.0348977C0.7408 0.056847 0.785848 0.0884739 0.823442 0.127948L5.77059 5.21252C5.84547 5.28948 5.88736 5.39262 5.88736 5.5C5.88736 5.60738 5.84547 5.71052 5.77059 5.78748L0.823442 10.8721C0.785848 10.9115 0.7408 10.9432 0.690903 10.9651C0.641006 10.9871 0.587252 10.9989 0.53275 10.9999C0.478249 11.001 0.424082 10.9912 0.373386 10.9711C0.32269 10.9511 0.276471 10.9212 0.237402 10.8832C0.198333 10.8452 0.167191 10.7998 0.145778 10.7497C0.124366 10.6996 0.113107 10.6457 0.112655 10.5912C0.112202 10.5367 0.122564 10.4826 0.143141 10.4321C0.163717 10.3816 0.194101 10.3357 0.232532 10.2971L4.90099 5.5H4.90044Z" fill="#212121"/>
</svg>
