<svg width="6" height="11" viewBox="0 0 6 11" fill="none" xmlns="http://www.w3.org/2000/svg">
<path d="M1.09956 5.5L5.76747 10.2971C5.8059 10.3357 5.83628 10.3816 5.85686 10.4321C5.87744 10.4826 5.8878 10.5367 5.88735 10.5912C5.88689 10.6457 5.87563 10.6996 5.85422 10.7497C5.83281 10.7998 5.80167 10.8452 5.7626 10.8832C5.72353 10.9212 5.67731 10.9511 5.62661 10.9711C5.57592 10.9912 5.52175 11.001 5.46725 10.9999C5.41275 10.9989 5.35899 10.9871 5.3091 10.9651C5.2592 10.9432 5.21415 10.9115 5.17656 10.8721L0.229411 5.78748C0.154532 5.71052 0.112637 5.60738 0.112637 5.5C0.112637 5.39262 0.154532 5.28948 0.229411 5.21252L5.17656 0.127947C5.21415 0.0884724 5.2592 0.0568457 5.3091 0.0348969C5.35899 0.0129471 5.41275 0.00111103 5.46725 7.34329e-05C5.52175 -0.000964165 5.57592 0.00881672 5.62661 0.0288515C5.67731 0.0488853 5.72353 0.0787745 5.7626 0.116789C5.80167 0.154803 5.83281 0.20019 5.85422 0.250319C5.87563 0.300448 5.88689 0.354327 5.88735 0.408836C5.8878 0.463346 5.87744 0.517404 5.85686 0.567883C5.83628 0.618361 5.8059 0.664257 5.76747 0.702916L1.09901 5.5H1.09956Z" fill="#212121"/>
</svg>
