<svg width="14" height="18" viewBox="0 0 14 18" fill="none" xmlns="http://www.w3.org/2000/svg">
<path d="M2.83331 9.20829C2.83331 9.04253 2.89916 8.88356 3.01637 8.76635C3.13358 8.64914 3.29255 8.58329 3.45831 8.58329C3.62407 8.58329 3.78304 8.64914 3.90025 8.76635C4.01746 8.88356 4.08331 9.04253 4.08331 9.20829C4.08331 9.37405 4.01746 9.53302 3.90025 9.65023C3.78304 9.76744 3.62407 9.83329 3.45831 9.83329C3.29255 9.83329 3.13358 9.76744 3.01637 9.65023C2.89916 9.53302 2.83331 9.37405 2.83331 9.20829ZM3.45831 11.0833C3.29255 11.0833 3.13358 11.1491 3.01637 11.2664C2.89916 11.3836 2.83331 11.5425 2.83331 11.7083C2.83331 11.8741 2.89916 12.033 3.01637 12.1502C3.13358 12.2674 3.29255 12.3333 3.45831 12.3333C3.62407 12.3333 3.78304 12.2674 3.90025 12.1502C4.01746 12.033 4.08331 11.8741 4.08331 11.7083C4.08331 11.5425 4.01746 11.3836 3.90025 11.2664C3.78304 11.1491 3.62407 11.0833 3.45831 11.0833ZM2.83331 14.2083C2.83331 14.0425 2.89916 13.8836 3.01637 13.7663C3.13358 13.6491 3.29255 13.5833 3.45831 13.5833C3.62407 13.5833 3.78304 13.6491 3.90025 13.7663C4.01746 13.8836 4.08331 14.0425 4.08331 14.2083C4.08331 14.3741 4.01746 14.533 3.90025 14.6502C3.78304 14.7674 3.62407 14.8333 3.45831 14.8333C3.29255 14.8333 3.13358 14.7674 3.01637 14.6502C2.89916 14.533 2.83331 14.3741 2.83331 14.2083ZM5.95831 8.58329C5.79255 8.58329 5.63358 8.64914 5.51637 8.76635C5.39916 8.88356 5.33331 9.04253 5.33331 9.20829C5.33331 9.37405 5.39916 9.53302 5.51637 9.65023C5.63358 9.76744 5.79255 9.83329 5.95831 9.83329H10.5416C10.7074 9.83329 10.8664 9.76744 10.9836 9.65023C11.1008 9.53302 11.1666 9.37405 11.1666 9.20829C11.1666 9.04253 11.1008 8.88356 10.9836 8.76635C10.8664 8.64914 10.7074 8.58329 10.5416 8.58329H5.95831ZM5.33331 11.7083C5.33331 11.5425 5.39916 11.3836 5.51637 11.2664C5.63358 11.1491 5.79255 11.0833 5.95831 11.0833H10.5416C10.7074 11.0833 10.8664 11.1491 10.9836 11.2664C11.1008 11.3836 11.1666 11.5425 11.1666 11.7083C11.1666 11.8741 11.1008 12.033 10.9836 12.1502C10.8664 12.2674 10.7074 12.3333 10.5416 12.3333H5.95831C5.79255 12.3333 5.63358 12.2674 5.51637 12.1502C5.39916 12.033 5.33331 11.8741 5.33331 11.7083ZM5.95831 13.5833C5.79255 13.5833 5.63358 13.6491 5.51637 13.7663C5.39916 13.8836 5.33331 14.0425 5.33331 14.2083C5.33331 14.3741 5.39916 14.533 5.51637 14.6502C5.63358 14.7674 5.79255 14.8333 5.95831 14.8333H10.5416C10.7074 14.8333 10.8664 14.7674 10.9836 14.6502C11.1008 14.533 11.1666 14.3741 11.1666 14.2083C11.1666 14.0425 11.1008 13.8836 10.9836 13.7663C10.8664 13.6491 10.7074 13.5833 10.5416 13.5833H5.95831ZM13.1783 6.01163L8.32081 1.15496C8.30793 1.14299 8.29429 1.13185 8.27998 1.12163C8.26967 1.11367 8.25966 1.10533 8.24998 1.09663C8.19264 1.04252 8.13167 0.992401 8.06748 0.946626C8.04614 0.932861 8.02386 0.920609 8.00081 0.909959L7.96081 0.889959L7.91915 0.865793C7.87415 0.839959 7.82831 0.813293 7.78081 0.793293C7.61486 0.727012 7.43924 0.688171 7.26081 0.678293C7.24415 0.677459 7.22748 0.674959 7.21165 0.672459C7.18903 0.668966 7.1662 0.667017 7.14331 0.666626H1.99998C1.55795 0.666626 1.13403 0.842221 0.821468 1.15478C0.508908 1.46734 0.333313 1.89127 0.333313 2.33329V15.6666C0.333313 16.1087 0.508908 16.5326 0.821468 16.8451C1.13403 17.1577 1.55795 17.3333 1.99998 17.3333H12C12.442 17.3333 12.8659 17.1577 13.1785 16.8451C13.4911 16.5326 13.6666 16.1087 13.6666 15.6666V7.18996C13.6666 6.74797 13.4909 6.32411 13.1783 6.01163ZM12.4166 15.6666C12.4166 15.7771 12.3727 15.8831 12.2946 15.9613C12.2165 16.0394 12.1105 16.0833 12 16.0833H1.99998C1.88947 16.0833 1.78349 16.0394 1.70535 15.9613C1.62721 15.8831 1.58331 15.7771 1.58331 15.6666V2.33329C1.58331 2.22279 1.62721 2.11681 1.70535 2.03866C1.78349 1.96052 1.88947 1.91663 1.99998 1.91663H6.99998V5.66663C6.99998 6.10865 7.17557 6.53258 7.48814 6.84514C7.8007 7.1577 8.22462 7.33329 8.66665 7.33329H12.4166V15.6666ZM8.24998 2.85079L11.4816 6.08329H8.66665C8.55614 6.08329 8.45016 6.03939 8.37202 5.96125C8.29388 5.88311 8.24998 5.77713 8.24998 5.66663V2.85079Z" fill="white"/>
</svg>
