<svg width="18" height="20" viewBox="0 0 18 20" fill="none" xmlns="http://www.w3.org/2000/svg">
<path d="M9.00004 0.604172C9.761 0.604122 10.4931 0.895263 11.0463 1.41787C11.5994 1.94048 11.9315 2.65493 11.9746 3.41467L11.9792 3.58334H16.7917C16.9659 3.58339 17.1336 3.64956 17.2608 3.76848C17.3881 3.8874 17.4655 4.0502 17.4774 4.22398C17.4893 4.39776 17.4347 4.56957 17.3248 4.7047C17.2149 4.83982 17.0578 4.92818 16.8852 4.95192L16.7917 4.95834H16.062L14.8887 16.8933C14.8299 17.4884 14.5616 18.0431 14.1315 18.4585C13.7015 18.8739 13.1378 19.123 12.5411 19.1612L12.3798 19.1667H5.62029C5.02213 19.1667 4.44347 18.9539 3.98771 18.5665C3.53196 18.1791 3.22882 17.6423 3.13246 17.0519L3.11137 16.8924L1.93712 4.95834H1.20837C1.04224 4.95833 0.881727 4.89817 0.756521 4.78897C0.631315 4.67977 0.549885 4.52893 0.527291 4.36434L0.520874 4.27084C0.520881 4.1047 0.581046 3.94419 0.690244 3.81899C0.799441 3.69378 0.950283 3.61235 1.11487 3.58976L1.20837 3.58334H6.02087C6.02087 2.79321 6.33475 2.03545 6.89345 1.47675C7.45215 0.918047 8.20992 0.604172 9.00004 0.604172ZM14.6806 4.95834H3.31854L4.47996 16.7577C4.50567 17.021 4.6217 17.2672 4.80833 17.4547C4.99496 17.6422 5.24071 17.7593 5.50387 17.7862L5.62029 17.7917H12.3798C12.9298 17.7917 13.3964 17.4021 13.5027 16.8732L13.521 16.7577L14.6797 4.95834H14.6806ZM10.6042 7.47917C10.7703 7.47918 10.9309 7.53934 11.0561 7.64854C11.1813 7.75774 11.2627 7.90858 11.2853 8.07317L11.2917 8.16667V14.5833C11.2917 14.7575 11.2255 14.9252 11.1066 15.0525C10.9876 15.1798 10.8249 15.2572 10.6511 15.269C10.4773 15.2809 10.3055 15.2264 10.1704 15.1164C10.0352 15.0065 9.94687 14.8494 9.92312 14.6768L9.91671 14.5833V8.16667C9.91671 7.98434 9.98914 7.80947 10.1181 7.68054C10.247 7.55161 10.4219 7.47917 10.6042 7.47917ZM7.39587 7.47917C7.56201 7.47918 7.72252 7.53934 7.84773 7.64854C7.97293 7.75774 8.05436 7.90858 8.07696 8.07317L8.08337 8.16667V14.5833C8.08332 14.7575 8.01715 14.9252 7.89823 15.0525C7.77931 15.1798 7.61652 15.2572 7.44273 15.269C7.26895 15.2809 7.09714 15.2264 6.96202 15.1164C6.82689 15.0065 6.73853 14.8494 6.71479 14.6768L6.70837 14.5833V8.16667C6.70837 7.98434 6.78081 7.80947 6.90974 7.68054C7.03867 7.55161 7.21354 7.47917 7.39587 7.47917ZM9.00004 1.97917C8.59745 1.97919 8.20958 2.13058 7.91343 2.4033C7.61728 2.67601 7.4345 3.05011 7.40137 3.45134L7.39587 3.58334H10.6042C10.6042 3.15789 10.4352 2.74986 10.1344 2.44902C9.83352 2.14818 9.42549 1.97917 9.00004 1.97917Z" fill="#333333" fill-opacity="0.8"/>
</svg>
