<svg width="8" height="5" viewBox="0 0 8 5" fill="none" xmlns="http://www.w3.org/2000/svg">
<path d="M3.99999 3.73465L1.09099 0.903983C1.06755 0.880678 1.03971 0.862253 1.0091 0.849775C0.978493 0.837297 0.945712 0.831013 0.912657 0.831288C0.879602 0.831563 0.84693 0.83839 0.816531 0.851375C0.786132 0.86436 0.758609 0.883244 0.735557 0.906936C0.712504 0.930628 0.694379 0.958656 0.68223 0.989398C0.670081 1.02014 0.66415 1.05299 0.664779 1.08604C0.665408 1.11909 0.672586 1.15169 0.685896 1.18194C0.699207 1.2122 0.718385 1.23952 0.742323 1.26232L3.82566 4.26232C3.87233 4.30772 3.93487 4.33313 3.99999 4.33313C4.0651 4.33313 4.12765 4.30772 4.17432 4.26232L7.25766 1.26232C7.28159 1.23952 7.30077 1.2122 7.31408 1.18194C7.32739 1.15169 7.33457 1.11909 7.3352 1.08604C7.33583 1.05299 7.3299 1.02014 7.31775 0.989398C7.3056 0.958656 7.28747 0.930628 7.26442 0.906936C7.24137 0.883244 7.21385 0.86436 7.18345 0.851375C7.15305 0.83839 7.12038 0.831563 7.08732 0.831288C7.05427 0.831013 7.02149 0.837297 6.99087 0.849775C6.96026 0.862253 6.93243 0.880678 6.90899 0.903983L3.99999 3.73498V3.73465Z" fill="#212529" fill-opacity="0.6" stroke="#212529" stroke-opacity="0.6" stroke-width="0.6"/>
</svg>
