<svg width="14" height="18" viewBox="0 0 14 18" fill="none" xmlns="http://www.w3.org/2000/svg">
<path d="M4.29165 8.58329C4.12589 8.58329 3.96692 8.64914 3.8497 8.76635C3.73249 8.88356 3.66665 9.04253 3.66665 9.20829C3.66665 9.37405 3.73249 9.53302 3.8497 9.65023C3.96692 9.76744 4.12589 9.83329 4.29165 9.83329H9.70831C9.87407 9.83329 10.033 9.76744 10.1503 9.65023C10.2675 9.53302 10.3333 9.37405 10.3333 9.20829C10.3333 9.04253 10.2675 8.88356 10.1503 8.76635C10.033 8.64914 9.87407 8.58329 9.70831 8.58329H4.29165ZM4.29165 10.875C4.12589 10.875 3.96692 10.9408 3.8497 11.058C3.73249 11.1752 3.66665 11.3342 3.66665 11.5C3.66665 11.6657 3.73249 11.8247 3.8497 11.9419C3.96692 12.0591 4.12589 12.125 4.29165 12.125H9.70831C9.87407 12.125 10.033 12.0591 10.1503 11.9419C10.2675 11.8247 10.3333 11.6657 10.3333 11.5C10.3333 11.3342 10.2675 11.1752 10.1503 11.058C10.033 10.9408 9.87407 10.875 9.70831 10.875H4.29165ZM4.29165 13.1666C4.12589 13.1666 3.96692 13.2325 3.8497 13.3497C3.73249 13.4669 3.66665 13.6259 3.66665 13.7916C3.66665 13.9574 3.73249 14.1164 3.8497 14.2336C3.96692 14.3508 4.12589 14.4166 4.29165 14.4166H9.70831C9.87407 14.4166 10.033 14.3508 10.1503 14.2336C10.2675 14.1164 10.3333 13.9574 10.3333 13.7916C10.3333 13.6259 10.2675 13.4669 10.1503 13.3497C10.033 13.2325 9.87407 13.1666 9.70831 13.1666H4.29165ZM8.32081 1.15496L13.1783 6.01163C13.4909 6.32411 13.6666 6.74797 13.6666 7.18996V15.6666C13.6666 16.1087 13.4911 16.5326 13.1785 16.8451C12.8659 17.1577 12.442 17.3333 12 17.3333H1.99998C1.55795 17.3333 1.13403 17.1577 0.821468 16.8451C0.508908 16.5326 0.333313 16.1087 0.333313 15.6666V2.33329C0.333313 1.89127 0.508908 1.46734 0.821468 1.15478C1.13403 0.842221 1.55795 0.666626 1.99998 0.666626H7.14331C7.16665 0.666626 7.18915 0.669959 7.21165 0.672459C7.22831 0.674959 7.24498 0.677459 7.26081 0.678293C7.43998 0.690793 7.61665 0.724959 7.78081 0.793293C7.82831 0.813293 7.87415 0.839959 7.91915 0.865793L7.96081 0.889959L7.99998 0.909959C8.02332 0.920574 8.04587 0.932827 8.06748 0.946626C8.13248 0.990793 8.19081 1.04329 8.24998 1.09663C8.25967 1.10533 8.26967 1.11367 8.27998 1.12163C8.29429 1.13185 8.30793 1.14298 8.32081 1.15496ZM12 16.0833C12.1105 16.0833 12.2165 16.0394 12.2946 15.9613C12.3727 15.8831 12.4166 15.7771 12.4166 15.6666V7.33329H8.66665C8.22462 7.33329 7.8007 7.1577 7.48814 6.84514C7.17557 6.53258 6.99998 6.10865 6.99998 5.66663V1.91663H1.99998C1.88947 1.91663 1.78349 1.96052 1.70535 2.03866C1.62721 2.11681 1.58331 2.22279 1.58331 2.33329V15.6666C1.58331 15.7771 1.62721 15.8831 1.70535 15.9613C1.78349 16.0394 1.88947 16.0833 1.99998 16.0833H12ZM11.4816 6.08329L8.24998 2.85079V5.66663C8.24998 5.77713 8.29388 5.88311 8.37202 5.96125C8.45016 6.03939 8.55614 6.08329 8.66665 6.08329H11.4816Z" fill="white" fill-opacity="0.7"/>
</svg>
