<svg width="18" height="14" viewBox="0 0 18 14" fill="none" xmlns="http://www.w3.org/2000/svg">
<path d="M9.00002 0.628287V6.17079L15.2017 6.16995L13.7667 4.73329C13.6608 4.62746 13.5965 4.48717 13.5853 4.33791C13.5742 4.18865 13.6169 4.04035 13.7059 3.91995L13.7667 3.84995C13.8725 3.74411 14.0128 3.67975 14.1621 3.66858C14.3113 3.65742 14.4596 3.70019 14.58 3.78912L14.65 3.84995L17.1475 6.34745C17.2534 6.45328 17.3177 6.59357 17.3289 6.74283C17.3401 6.89209 17.2973 7.0404 17.2084 7.16079L17.1475 7.23079L14.6509 9.73412C14.5393 9.84519 14.39 9.91009 14.2327 9.91585C14.0754 9.92161 13.9217 9.86781 13.8024 9.76519C13.683 9.66257 13.6068 9.51869 13.5889 9.36231C13.571 9.20592 13.6128 9.04854 13.7059 8.92162L13.7659 8.85079L15.1934 7.41995L9.00085 7.42079L9.00002 13.0416C9.00006 13.1329 8.98011 13.2231 8.94158 13.3058C8.90304 13.3885 8.84685 13.4618 8.77695 13.5205C8.70706 13.5792 8.62515 13.6219 8.537 13.6456C8.44884 13.6692 8.35658 13.6733 8.26669 13.6575L1.18335 12.4058C1.03884 12.3804 0.907877 12.3049 0.813414 12.1926C0.718951 12.0803 0.667009 11.9384 0.666687 11.7916V1.79162C0.666689 1.64349 0.719307 1.50017 0.815157 1.38722C0.911008 1.27428 1.04386 1.19905 1.19002 1.17495L8.27335 0.0116202C8.36282 -0.00312987 8.45443 0.00176472 8.54182 0.0259643C8.62921 0.0501639 8.71028 0.0930888 8.77942 0.15176C8.84856 0.210432 8.9041 0.283445 8.94219 0.365732C8.98029 0.448019 9.00002 0.53761 9.00002 0.628287ZM7.75002 1.36412L1.91669 2.32245V11.2666L7.75002 12.2966V1.36412Z" fill="white" fill-opacity="0.7"/>
</svg>
