<svg width="4" height="14" viewBox="0 0 4 14" fill="none" xmlns="http://www.w3.org/2000/svg">
<path d="M1.99999 3.45832C1.80848 3.45832 1.61884 3.4206 1.44191 3.34731C1.26498 3.27403 1.10421 3.16661 0.968792 3.03119C0.833373 2.89577 0.725954 2.735 0.652666 2.55807C0.579378 2.38114 0.541656 2.1915 0.541656 1.99999C0.541656 1.80848 0.579378 1.61884 0.652666 1.44191C0.725954 1.26498 0.833373 1.10421 0.968792 0.968793C1.10421 0.833374 1.26498 0.725953 1.44191 0.652665C1.61884 0.579377 1.80848 0.541656 1.99999 0.541656C2.38676 0.541657 2.7577 0.695302 3.03119 0.968793C3.30468 1.24228 3.45832 1.61322 3.45832 1.99999C3.45832 2.38676 3.30468 2.7577 3.03119 3.03119C2.7577 3.30468 2.38676 3.45832 1.99999 3.45832ZM1.99999 8.45832C1.61322 8.45832 1.24228 8.30468 0.968792 8.03119C0.695302 7.7577 0.541656 7.38676 0.541656 6.99999C0.541656 6.61322 0.695302 6.24228 0.968792 5.96879C1.24228 5.6953 1.61322 5.54166 1.99999 5.54166C2.38676 5.54166 2.7577 5.6953 3.03119 5.96879C3.30468 6.24228 3.45832 6.61322 3.45832 6.99999C3.45832 7.38676 3.30468 7.7577 3.03119 8.03119C2.7577 8.30468 2.38676 8.45832 1.99999 8.45832ZM0.541656 12C0.541656 12.3868 0.695302 12.7577 0.968792 13.0312C1.24228 13.3047 1.61322 13.4583 1.99999 13.4583C2.38676 13.4583 2.7577 13.3047 3.03119 13.0312C3.30468 12.7577 3.45832 12.3868 3.45832 12C3.45832 11.6132 3.30468 11.2423 3.03119 10.9688C2.7577 10.6953 2.38676 10.5417 1.99999 10.5417C1.61322 10.5417 1.24228 10.6953 0.968792 10.9688C0.695302 11.2423 0.541656 11.6132 0.541656 12Z" fill="#333333" fill-opacity="0.6"/>
</svg>
