<svg width="16" height="15" viewBox="0 0 16 15" fill="none" xmlns="http://www.w3.org/2000/svg">
<path d="M5.29167 0.5H10.7083C10.8594 0.500006 11.0053 0.554702 11.1191 0.653973C11.2329 0.753243 11.307 0.890372 11.3275 1.04L11.3333 1.125V3.83333H12.7917C13.51 3.83333 14.1988 4.11867 14.7067 4.62659C15.2147 5.1345 15.5 5.82337 15.5 6.54167V11.9583C15.5 12.6766 15.2147 13.3655 14.7067 13.8734C14.1988 14.3813 13.51 14.6667 12.7917 14.6667H3.20833C2.49004 14.6667 1.80116 14.3813 1.29325 13.8734C0.785341 13.3655 0.5 12.6766 0.5 11.9583V6.54167C0.5 5.82337 0.785341 5.1345 1.29325 4.62659C1.80116 4.11867 2.49004 3.83333 3.20833 3.83333H4.66667V1.125C4.66667 0.973969 4.72137 0.828048 4.82064 0.714224C4.91991 0.600401 5.05704 0.526374 5.20667 0.505833L5.29167 0.5ZM12.7917 5.08333H3.20833C2.82156 5.08333 2.45063 5.23698 2.17714 5.51047C1.90365 5.78396 1.75 6.15489 1.75 6.54167V11.9583C1.75 12.7633 2.40333 13.4167 3.20833 13.4167H12.7917C13.1784 13.4167 13.5494 13.263 13.8229 12.9895C14.0964 12.716 14.25 12.3451 14.25 11.9583V6.54167C14.25 6.15489 14.0964 5.78396 13.8229 5.51047C13.5494 5.23698 13.1784 5.08333 12.7917 5.08333ZM10.0833 1.75H5.91667V3.83333H10.0833V1.75Z" fill="white" fill-opacity="0.7"/>
</svg>
