<svg width="18" height="17" viewBox="0 0 18 17" fill="none" xmlns="http://www.w3.org/2000/svg">
<path d="M2.33335 9.66583L9.83335 9.66667C10.2538 9.66653 10.6588 9.82534 10.9671 10.1112C11.2755 10.3972 11.4643 10.789 11.4959 11.2083L11.5 11.3333V12.5833C11.4992 15.5 8.40335 16.3333 6.08335 16.3333C3.81502 16.3333 0.804187 15.5367 0.670854 12.775L0.666687 12.5833V11.3325C0.666687 10.4542 1.34669 9.73417 2.20835 9.67L2.33335 9.66667V9.66583ZM11.6834 9.66667H15.6667C16.545 9.66667 17.265 10.3467 17.3284 11.2083L17.3334 11.3333V12.1667C17.3325 14.7183 14.9517 15.5 13.1667 15.5C12.5621 15.5014 11.9608 15.4109 11.3834 15.2317C11.6634 14.91 11.8892 14.5425 12.0517 14.1258C12.4177 14.2076 12.7916 14.2493 13.1667 14.25L13.3892 14.245C14.21 14.2092 15.9609 13.9425 16.0775 12.3375L16.0834 12.1667V11.3333C16.0832 11.2359 16.049 11.1415 15.9866 11.0666C15.9242 10.9917 15.8375 10.941 15.7417 10.9233L15.6667 10.9167H12.2909C12.2219 10.5087 12.0514 10.1247 11.795 9.8L11.6834 9.66667ZM2.33335 10.9158L2.25002 10.9242C2.17004 10.9408 2.09655 10.9802 2.03835 11.0375C1.981 11.0954 1.94164 11.1686 1.92502 11.2483L1.91669 11.3325V12.5833C1.91669 13.4242 2.29169 14.0183 3.09752 14.4517C3.78585 14.8225 4.76669 15.0467 5.81919 15.0792L6.08335 15.0833L6.34752 15.0792C7.40002 15.0467 8.38002 14.8225 9.06919 14.4517C9.82419 14.045 10.2017 13.4975 10.2459 12.7375L10.25 12.5825V11.3333C10.2499 11.2359 10.2157 11.1415 10.1533 11.0666C10.0908 10.9917 10.0042 10.941 9.90835 10.9233L9.83335 10.9167L2.33335 10.9158ZM6.08335 0.5C7.07792 0.5 8.03174 0.895088 8.735 1.59835C9.43826 2.30161 9.83335 3.25544 9.83335 4.25C9.83335 5.24456 9.43826 6.19839 8.735 6.90165C8.03174 7.60491 7.07792 8 6.08335 8C5.08879 8 4.13496 7.60491 3.4317 6.90165C2.72844 6.19839 2.33335 5.24456 2.33335 4.25C2.33335 3.25544 2.72844 2.30161 3.4317 1.59835C4.13496 0.895088 5.08879 0.5 6.08335 0.5ZM13.5834 2.16667C14.3569 2.16667 15.0988 2.47396 15.6457 3.02094C16.1927 3.56792 16.5 4.30979 16.5 5.08333C16.5 5.85688 16.1927 6.59875 15.6457 7.14573C15.0988 7.69271 14.3569 8 13.5834 8C12.8098 8 12.0679 7.69271 11.521 7.14573C10.974 6.59875 10.6667 5.85688 10.6667 5.08333C10.6667 4.30979 10.974 3.56792 11.521 3.02094C12.0679 2.47396 12.8098 2.16667 13.5834 2.16667ZM6.08335 1.75C4.70502 1.75 3.58335 2.87167 3.58335 4.25C3.58335 5.62833 4.70502 6.75 6.08335 6.75C7.46169 6.75 8.58335 5.62833 8.58335 4.25C8.58335 2.87167 7.46169 1.75 6.08335 1.75ZM13.5834 3.41667C12.6642 3.41667 11.9167 4.16417 11.9167 5.08333C11.9167 6.0025 12.6642 6.75 13.5834 6.75C14.5025 6.75 15.25 6.0025 15.25 5.08333C15.25 4.16417 14.5025 3.41667 13.5834 3.41667Z" fill="white" fill-opacity="0.7"/>
</svg>
